<svg id="Capa_1" data-name="Capa 1" xmlns="http://www.w3.org/2000/svg" width="20" height="20" viewBox="0 0 20 20"><title>Sin título-4</title><path d="M2.57,0H17.43A2.51,2.51,0,0,1,20,2.57V17.43A2.51,2.51,0,0,1,17.43,20H2.57A2.51,2.51,0,0,1,0,17.43V2.57A2.51,2.51,0,0,1,2.57,0h0Zm12,2.22a0.9,0.9,0,0,0-.9.9V5.28a0.9,0.9,0,0,0,.9.9h2.26a0.9,0.9,0,0,0,.9-0.9V3.12a0.9,0.9,0,0,0-.9-0.9H14.57Zm3.17,6.24H16a5.87,5.87,0,0,1,.26,1.72,6.12,6.12,0,0,1-6.22,6,6.12,6.12,0,0,1-6.22-6,5.87,5.87,0,0,1,.26-1.72H2.22v8.45a0.8,0.8,0,0,0,.8.79H16.94a0.8,0.8,0,0,0,.8-0.79V8.46ZM10,6.06A4,4,0,0,0,6,10a4,4,0,0,0,4,3.89A4,4,0,0,0,14,10a4,4,0,0,0-4-3.89h0Zm0,0" transform="translate(0)" fill="#fff" fill-rule="evenodd"/></svg>