<svg id="Capa_1" data-name="Capa 1" xmlns="http://www.w3.org/2000/svg" width="19.95" height="14.77" viewBox="0 0 19.95 14.77"><title>Sin título-4</title><polygon points="19.85 12.85 19.63 12.86 19.47 12.85 19.35 12.83 19.27 12.81 19.19 12.78 19.12 12.74 19.07 12.71 19.03 12.68 18.99 12.64 18.96 12.6 18.91 12.52 18.87 12.44 18.83 12.34 18.79 12.2 18.76 11.98 18.75 11.67 18.75 11.5 18.75 11.32 18.74 11.14 18.74 10.97 18.74 10.79 18.74 10.61 18.74 10.44 18.74 10.26 18.74 10.09 18.73 9.91 18.73 9.74 18.73 9.57 18.73 9.4 18.72 9.22 18.72 9.05 18.71 8.89 18.71 8.72 18.7 8.55 18.7 8.38 18.69 8.22 18.69 8.06 18.68 7.9 18.67 7.74 18.67 7.58 18.66 7.42 18.65 7.26 18.64 7.11 18.63 6.96 18.63 6.81 18.62 6.66 18.61 6.51 18.6 6.37 18.59 6.23 18.57 6.09 18.56 5.95 18.55 5.81 18.54 5.68 18.52 5.55 18.51 5.42 18.5 5.29 18.48 5.17 18.47 5.05 18.45 4.93 18.44 4.81 18.42 4.7 18.4 4.59 18.39 4.48 18.37 4.37 18.35 4.27 18.33 4.17 18.31 4.07 18.29 3.98 18.27 3.89 18.25 3.8 18.23 3.71 18.21 3.63 18.19 3.55 18.17 3.48 18.14 3.4 18.12 3.34 18.1 3.27 18.07 3.21 18.05 3.15 18.02 3.09 18 3.04 17.97 2.99 17.94 2.94 17.91 2.9 17.89 2.86 17.86 2.82 17.83 2.79 17.8 2.76 17.77 2.73 17.74 2.71 17.7 2.69 17.67 2.68 17.64 2.66 17.61 2.65 17.57 2.65 17.54 2.65 15.41 2.65 15.44 2.65 15.47 2.65 15.51 2.66 15.54 2.68 15.57 2.69 15.6 2.71 15.63 2.73 15.66 2.76 15.69 2.79 15.72 2.82 15.75 2.86 15.78 2.9 15.81 2.94 15.84 2.99 15.86 3.04 15.89 3.09 15.91 3.15 15.94 3.21 15.96 3.27 15.99 3.34 16.01 3.4 16.03 3.48 16.05 3.55 16.08 3.63 16.1 3.71 16.12 3.8 16.14 3.89 16.16 3.98 16.18 4.07 16.2 4.17 16.22 4.27 16.23 4.37 16.25 4.48 16.27 4.59 16.29 4.7 16.3 4.81 16.32 4.93 16.33 5.05 16.35 5.17 16.36 5.29 16.38 5.42 16.39 5.55 16.4 5.68 16.41 5.81 16.43 5.95 16.44 6.09 16.45 6.23 16.46 6.37 16.47 6.51 16.48 6.66 16.49 6.81 16.5 6.96 16.51 7.11 16.52 7.26 16.53 7.42 16.53 7.58 16.54 7.74 16.55 7.9 16.55 8.06 16.56 8.22 16.56 8.38 16.57 8.55 16.57 8.72 16.58 8.89 16.58 9.05 16.59 9.22 16.59 9.4 16.59 9.57 16.6 9.74 16.6 9.91 16.6 10.09 16.6 10.26 16.61 10.44 16.61 10.61 16.61 10.79 16.61 10.97 16.61 11.14 16.61 11.32 16.61 11.5 16.61 11.68 16.61 11.99 16.63 12.41 16.67 12.79 16.74 13.13 16.84 13.42 16.96 13.68 17.1 13.91 17.21 14.04 17.32 14.16 17.5 14.31 17.69 14.43 17.89 14.54 18.1 14.62 18.39 14.69 18.76 14.75 19.27 14.77 19.74 14.74 19.95 14.72 19.95 12.84 19.85 12.85" fill="#fff"/><polygon points="14.75 12.84 14.74 12.83 14.73 12.83 14.71 12.82 14.7 12.81 14.69 12.8 14.67 12.79 14.67 12.79 14.66 12.78 14.64 12.76 14.63 12.74 14.62 12.73 14.6 12.71 14.59 12.69 14.57 12.66 14.56 12.64 14.54 12.61 14.53 12.58 14.52 12.55 14.5 12.52 14.49 12.49 14.47 12.46 14.46 12.42 14.44 12.38 14.43 12.34 14.41 12.3 14.4 12.26 14.38 12.22 14.37 12.17 14.35 12.13 14.33 12.08 14.32 12.03 14.3 11.97 14.29 11.92 14.27 11.87 14.25 11.81 14.24 11.75 14.22 11.69 14.2 11.63 14.19 11.57 14.17 11.51 14.15 11.44 14.13 11.38 14.12 11.31 14.1 11.24 14.08 11.17 14.06 11.1 14.05 11.03 14.03 10.95 14.01 10.88 13.99 10.8 13.97 10.72 13.95 10.64 13.93 10.56 13.91 10.48 13.89 10.4 13.88 10.31 13.86 10.23 13.84 10.14 13.81 10.05 13.79 9.96 13.77 9.87 13.75 9.78 13.73 9.69 13.71 9.6 13.69 9.5 13.67 9.41 13.65 9.31 13.62 9.22 13.6 9.12 13.58 9.02 13.55 8.92 13.53 8.82 13.51 8.72 13.48 8.62 13.46 8.52 13.44 8.41 13.41 8.31 13.39 8.21 13.36 8.1 13.34 8 13.31 7.89 13.28 7.79 13.26 7.68 13.23 7.57 13.2 7.46 13.18 7.36 13.15 7.25 13.12 7.14 13.1 7.04 13.09 7.03 13.06 6.92 13.03 6.81 13 6.7 12.97 6.59 12.94 6.48 12.91 6.37 12.88 6.26 12.84 6.15 12.81 6.04 12.78 5.92 12.74 5.81 12.71 5.7 12.67 5.59 12.64 5.48 12.6 5.37 12.56 5.26 12.52 5.15 12.49 5.04 12.45 4.93 12.41 4.83 12.37 4.72 12.32 4.61 12.28 4.5 12.24 4.39 12.19 4.29 12.15 4.18 12.1 4.08 12.05 3.97 12.01 3.87 11.96 3.76 11.91 3.66 11.86 3.56 11.8 3.46 11.75 3.36 11.69 3.26 11.63 3.16 11.57 3.06 11.51 2.96 11.45 2.87 11.39 2.77 11.32 2.68 11.25 2.58 11.18 2.49 11.11 2.4 11.03 2.31 10.96 2.22 10.88 2.14 10.79 2.05 10.71 1.97 10.62 1.88 10.53 1.8 10.43 1.72 10.34 1.64 10.23 1.56 10.13 1.49 10.02 1.41 9.9 1.34 9.79 1.27 9.66 1.2 9.53 1.13 9.4 1.06 9.26 1 9.11 0.94 8.96 0.87 8.79 0.81 8.63 0.75 8.45 0.7 8.26 0.64 8.06 0.59 7.85 0.54 7.62 0.49 7.38 0.44 7.13 0.4 6.85 0.36 6.55 0.31 6.23 0.28 5.88 0.24 5.49 0.2 5.06 0.17 4.58 0.14 4.03 0.11 3.42 0.09 2.71 0.06 1.9 0.04 0.98 0.02 0.01 0 0 0 0.06 0.02 0.11 0.04 0.17 0.06 0.23 0.09 0.28 0.11 0.34 0.14 0.39 0.17 0.45 0.2 0.5 0.24 0.56 0.28 0.62 0.31 0.67 0.36 0.73 0.4 0.78 0.44 0.84 0.49 0.9 0.54 0.95 0.59 1 0.64 1.06 0.7 1.12 0.75 1.17 0.81 1.23 0.87 1.28 0.94 1.34 1 1.39 1.06 1.45 1.13 1.5 1.2 1.56 1.27 1.61 1.34 1.67 1.41 1.72 1.49 1.77 1.56 1.83 1.64 1.89 1.72 1.94 1.8 1.99 1.88 2.05 1.97 2.1 2.05 2.16 2.14 2.21 2.22 2.26 2.31 2.32 2.4 2.37 2.49 2.43 2.58 2.48 2.68 2.54 2.77 2.59 2.87 2.64 2.96 2.7 3.06 2.75 3.16 2.8 3.26 2.86 3.36 2.91 3.46 2.96 3.56 3.02 3.66 3.07 3.76 3.13 3.87 3.18 3.97 3.23 4.08 3.28 4.18 3.34 4.29 3.39 4.39 3.44 4.5 3.5 4.61 3.55 4.72 3.6 4.83 3.65 4.93 3.71 5.04 3.76 5.15 3.81 5.26 3.87 5.37 3.92 5.48 3.97 5.59 4.02 5.7 4.07 5.81 4.13 5.92 4.18 6.04 4.23 6.15 4.28 6.26 4.33 6.37 4.39 6.48 4.44 6.59 4.49 6.7 4.54 6.81 4.59 6.92 4.65 7.03 4.7 7.14 4.75 7.25 4.8 7.36 4.85 7.46 4.9 7.57 4.96 7.68 5.01 7.79 5.06 7.89 5.11 8 5.16 8.1 5.21 8.21 5.26 8.31 5.31 8.41 5.36 8.52 5.41 8.62 5.46 8.72 5.52 8.82 5.57 8.92 5.62 9.02 5.67 9.12 5.72 9.22 5.77 9.31 5.82 9.41 5.87 9.5 5.92 9.6 5.97 9.69 6.02 9.78 6.07 9.87 6.12 9.96 6.17 10.05 6.22 10.14 6.27 10.23 6.32 10.31 6.37 10.4 6.42 10.48 6.46 10.56 6.51 10.64 6.57 10.72 6.61 10.8 6.66 10.88 6.71 10.95 6.76 11.03 6.81 11.1 6.86 11.17 6.91 11.24 6.96 11.31 7 11.38 7.05 11.44 7.1 11.51 7.15 11.57 7.2 11.63 7.25 11.69 7.29 11.75 7.34 11.81 7.39 11.87 7.44 11.92 7.49 11.97 7.54 12.03 7.58 12.08 7.63 12.13 7.68 12.17 7.73 12.22 7.77 12.26 7.82 12.3 7.87 12.34 7.92 12.38 7.96 12.42 8.01 12.46 8.06 12.49 8.11 12.52 8.15 12.55 8.2 12.58 8.25 12.61 8.29 12.64 8.34 12.66 8.39 12.69 8.43 12.71 8.48 12.73 8.53 12.74 8.57 12.76 8.62 12.78 8.66 12.79 8.71 12.8 8.76 12.81 8.8 12.82 8.85 12.83 8.89 12.83 8.94 12.84 8.99 12.84 9.03 12.84 9.04 12.84 14.77 12.84 14.75 12.84" fill="#fff"/></svg>