<svg id="Capa_1" data-name="Capa 1" xmlns="http://www.w3.org/2000/svg" width="16.41" height="19.69" viewBox="0 0 16.41 19.69"><title>Sin título-4</title><path d="M15.45,14.48H14.37V13.85a0.51,0.51,0,0,1,.51-0.51H15a0.51,0.51,0,0,1,.51.51v0.63ZM11.4,13.13a0.46,0.46,0,0,0-.5.41V16.6a0.51,0.51,0,0,0,1,0V13.54a0.46,0.46,0,0,0-.5-0.41h0ZM18,11.43v5.81a2.62,2.62,0,0,1-2.68,2.53h-11a2.62,2.62,0,0,1-2.68-2.53V11.43A2.62,2.62,0,0,1,4.26,8.9h11A2.62,2.62,0,0,1,18,11.43h0ZM5,17.86V11.75H6.36V10.84H2.72v0.89H3.86v6.13H5Zm4.1-5.2H8v3.27a5.75,5.75,0,0,1,0,.79c-0.09.25-.51,0.52-0.67,0a6.82,6.82,0,0,1,0-.8V12.66H6.14V15.9c0,0.5,0,.87,0,1a1,1,0,0,0,.29.84,1.38,1.38,0,0,0,1.74-.58v0.67H9.1v-5.2h0Zm3.65,3.74V13.68c0-1-.78-1.66-1.83-0.82v-2H9.78v7h0.94l0.08-.43c1.2,1.1,1.95.35,1.95-1h0ZM16.32,16H15.46s0,0.07,0,.11v0.48a0.47,0.47,0,0,1-.47.46H14.82a0.47,0.47,0,0,1-.47-0.46V15.38h2V14.64a11.76,11.76,0,0,0-.06-1.39c-0.14-1-1.51-1.13-2.2-.63a1.3,1.3,0,0,0-.48.65,3.65,3.65,0,0,0-.14,1.15V16c0,2.7,3.27,2.32,2.88,0h0Zm-4.39-8.8a0.78,0.78,0,0,0,.28.35,0.8,0.8,0,0,0,.47.13,0.73,0.73,0,0,0,.44-0.14,1,1,0,0,0,.32-0.41l0,0.45h1.27V2.21h-1V6.42a0.42,0.42,0,0,1-.83,0V2.21h-1V5.86c0,0.46,0,.77,0,0.93a1.64,1.64,0,0,0,.11.45h0ZM8.08,4.18A4.44,4.44,0,0,1,8.21,3,1.3,1.3,0,0,1,9.54,2a1.57,1.57,0,0,1,.76.17,1.26,1.26,0,0,1,.49.44,1.73,1.73,0,0,1,.23.56,4.48,4.48,0,0,1,.06.88V5.43A7.72,7.72,0,0,1,11,6.54a1.76,1.76,0,0,1-.25.66,1.19,1.19,0,0,1-.49.45,1.55,1.55,0,0,1-.69.15,1.89,1.89,0,0,1-.74-0.12,1,1,0,0,1-.47-0.37,1.64,1.64,0,0,1-.24-0.61,5.83,5.83,0,0,1-.07-1.07V4.18Zm1,2.15a0.51,0.51,0,1,0,1,0V3.45a0.51,0.51,0,1,0-1,0V6.33ZM5.55,7.79h1.2V3.64L8.17,0.09H6.86L6.1,2.72,5.34,0.08H4L5.55,3.64V7.79Zm0,0" transform="translate(-1.58 -0.08)" fill="#fff"/></svg>