<svg id="Capa_1" data-name="Capa 1" xmlns="http://www.w3.org/2000/svg" width="96" height="85.96" viewBox="0 0 96 85.96"><title>Sin título-1</title><path d="M1.84,75.32v4.06a3.27,3.27,0,0,1,1.92-.64,2.68,2.68,0,0,1,1.51.45,3,3,0,0,1,1.05,1.24,3.64,3.64,0,0,1,.29.82,4.6,4.6,0,0,1-.34,2.89A3,3,0,0,1,5,85.43a4,4,0,0,1-2,.45,7.56,7.56,0,0,1-1.38-.12,5.08,5.08,0,0,1-1.21-.38V75.32H1.84Zm0,5.36v3.73a6.37,6.37,0,0,0,1.38.2A2,2,0,0,0,4.7,84a2.22,2.22,0,0,0,.59-1.59,2.76,2.76,0,0,0-.52-1.76A1.65,1.65,0,0,0,3.42,80a2.07,2.07,0,0,0-.82.15A2.67,2.67,0,0,0,1.84,80.68Z" transform="translate(-0.35 0.07)" fill="#1d1d1b"/><path d="M10.23,76.7a0.77,0.77,0,0,1-.11.4,0.86,0.86,0,0,1-.29.3,0.69,0.69,0,0,1-.38.11,0.87,0.87,0,0,1-.6-0.23,0.79,0.79,0,0,1-.24-0.58,0.81,0.81,0,0,1,.83-0.83,0.67,0.67,0,0,1,.38.11,0.94,0.94,0,0,1,.3.31A0.85,0.85,0,0,1,10.23,76.7Zm-0.11,2.08v6.85H8.75V78.78h1.38Z" transform="translate(-0.35 0.07)" fill="#1d1d1b"/><path d="M18.84,83.67V85a5.87,5.87,0,0,1-1.26.61,5.07,5.07,0,0,1-1.49.2,3.21,3.21,0,0,1-1.39-.29,3.07,3.07,0,0,1-1.05-.81A3.62,3.62,0,0,1,13,83.52a4.22,4.22,0,0,1-.22-1.38,4,4,0,0,1,.4-1.82,3,3,0,0,1,1.13-1.23A3.18,3.18,0,0,1,16,78.65a2.72,2.72,0,0,1,2.22,1,4.35,4.35,0,0,1,.8,2.82H14.14a2.11,2.11,0,0,0,2.28,2A4.62,4.62,0,0,0,18.84,83.67Zm-4.66-2.15h3.45a1.83,1.83,0,0,0-.13-0.68,1.69,1.69,0,0,0-.36-0.55A1.51,1.51,0,0,0,16,79.85a1.69,1.69,0,0,0-1.22.43A2.13,2.13,0,0,0,14.18,81.53Z" transform="translate(-0.35 0.07)" fill="#1d1d1b"/><path d="M22.19,78.81v0.88h0a2.7,2.7,0,0,1,1.47-1,2.31,2.31,0,0,1,.57-0.07,2.24,2.24,0,0,1,1.17.31,2.2,2.2,0,0,1,.83.94,3.4,3.4,0,0,1,.32,1.54v4.23H25.25V81.4a1.9,1.9,0,0,0-.35-1.21,1.2,1.2,0,0,0-1-.44,1.64,1.64,0,0,0-.84.22,3.92,3.92,0,0,0-.87.75v4.93H20.82V78.81h1.37Z" transform="translate(-0.35 0.07)" fill="#1d1d1b"/><path d="M39.47,83.58v1.31a5.77,5.77,0,0,1-1.26.61,5,5,0,0,1-1.49.2,3.22,3.22,0,0,1-1.39-.29,3.06,3.06,0,0,1-1.05-.81,3.61,3.61,0,0,1-.66-1.17A4.22,4.22,0,0,1,33.4,82a4,4,0,0,1,.4-1.82A3,3,0,0,1,34.93,79a3.16,3.16,0,0,1,1.66-.44,2.72,2.72,0,0,1,2.22,1,4.35,4.35,0,0,1,.8,2.83H34.78a2.11,2.11,0,0,0,2.28,2A4.6,4.6,0,0,0,39.47,83.58Zm-4.66-2.14h3.45a1.85,1.85,0,0,0-.13-0.68,1.72,1.72,0,0,0-.35-0.55,1.52,1.52,0,0,0-1.16-.44,1.7,1.7,0,0,0-1.22.43A2.13,2.13,0,0,0,34.81,81.43Z" transform="translate(-0.35 0.07)" fill="#1d1d1b"/><path d="M44.93,79.18v1.33a3.92,3.92,0,0,0-1-.55,3.34,3.34,0,0,0-.49-0.14,2.25,2.25,0,0,0-.45,0,1.12,1.12,0,0,0-.66.18,0.54,0.54,0,0,0-.25.46,0.86,0.86,0,0,0,.38.52,13.88,13.88,0,0,0,1.3.85,9,9,0,0,1,.74.52,3.21,3.21,0,0,1,.47.45,1.49,1.49,0,0,1,.34.94,1.82,1.82,0,0,1-.65,1.45,2.4,2.4,0,0,1-1.63.56,4.57,4.57,0,0,1-1.16-.15,5.74,5.74,0,0,1-1.22-.49V83.63a4.36,4.36,0,0,0,2.28.91,1.13,1.13,0,0,0,.38-0.06,1.23,1.23,0,0,0,.33-0.17,0.67,0.67,0,0,0,.29-0.57,0.58,0.58,0,0,0-.29-0.51q-0.32-.22-1.17-0.71a6,6,0,0,1-1.32-1,1.54,1.54,0,0,1-.44-1.09,1.69,1.69,0,0,1,.6-1.38,2.51,2.51,0,0,1,1.65-.5A4,4,0,0,1,44.93,79.18Z" transform="translate(-0.35 0.07)" fill="#1d1d1b"/><path d="M48.6,77.4v1.44h2.18v1.21H48.6v3.52a1,1,0,0,0,.31.79,1.06,1.06,0,0,0,.69.25,3,3,0,0,0,1.55-.54v1.31a3.72,3.72,0,0,1-.85.32,3.47,3.47,0,0,1-.79.11,2.24,2.24,0,0,1-1.66-.59,1.93,1.93,0,0,1-.44-0.68,2.45,2.45,0,0,1-.15-0.88V80.05H46.08V79.92Z" transform="translate(-0.35 0.07)" fill="#1d1d1b"/><path d="M57.59,84.35v0.84a6.89,6.89,0,0,1-.76.43,1.37,1.37,0,0,1-.54.11,1.29,1.29,0,0,1-.72-0.17A0.8,0.8,0,0,1,55.24,85a3,3,0,0,1-1.84.7,1.6,1.6,0,0,1-1.2-.49A1.79,1.79,0,0,1,52,83a2.17,2.17,0,0,1,.77-0.63A10.81,10.81,0,0,1,54,81.9l1.21-.43V81.1a1.22,1.22,0,0,0-.3-0.92A1.33,1.33,0,0,0,54,79.89,2.87,2.87,0,0,0,51.82,81V79.56a2.84,2.84,0,0,1,2.31-1,3.08,3.08,0,0,1,1.27.25,2,2,0,0,1,.89.77,2,2,0,0,1,.24.56,2.69,2.69,0,0,1,.08.7v3.52a0.41,0.41,0,0,0,.06.27,0.28,0.28,0,0,0,.21.07,0.77,0.77,0,0,0,.31-0.09A1.64,1.64,0,0,0,57.59,84.35Zm-2.35-.13v-2a8.07,8.07,0,0,0-1.61.7,1,1,0,0,0-.54.91,0.9,0.9,0,0,0,.28.67,1,1,0,0,0,.69.27A1.64,1.64,0,0,0,55.24,84.22Z" transform="translate(-0.35 0.07)" fill="#1d1d1b"/><path d="M58.83,78.71H60.2v1.55h0c0.65-1.14,1.31-1.71,2-1.71a2.46,2.46,0,0,1,1.64.8l-0.7,1.18a3.82,3.82,0,0,0-.7-0.48,1.37,1.37,0,0,0-.61-0.19,1.34,1.34,0,0,0-.81.28,1.91,1.91,0,0,0-.61.77A2.52,2.52,0,0,0,60.2,82v3.59H58.83V78.71Z" transform="translate(-0.35 0.07)" fill="#1d1d1b"/><path d="M71.63,75.22v4.06a3.28,3.28,0,0,1,1.92-.64,2.67,2.67,0,0,1,1.51.45,3,3,0,0,1,1.05,1.24,3.64,3.64,0,0,1,.29.81A4.52,4.52,0,0,1,76.06,84a3,3,0,0,1-1.27,1.3,4,4,0,0,1-2,.45,7.52,7.52,0,0,1-1.38-.12,5,5,0,0,1-1.21-.38V75.22h1.38Zm0,5.36v3.72a6.33,6.33,0,0,0,1.37.2,2,2,0,0,0,1.49-.63,2.23,2.23,0,0,0,.59-1.59,2.75,2.75,0,0,0-.52-1.76,1.64,1.64,0,0,0-1.35-.65,2.06,2.06,0,0,0-.82.15A2.62,2.62,0,0,0,71.63,80.59Z" transform="translate(-0.35 0.07)" fill="#1d1d1b"/><path d="M80,76.54a0.8,0.8,0,0,1-.11.4,0.86,0.86,0,0,1-.29.3,0.7,0.7,0,0,1-.38.11,0.86,0.86,0,0,1-.6-0.23,0.79,0.79,0,0,1-.24-0.58,0.81,0.81,0,0,1,.84-0.84,0.68,0.68,0,0,1,.38.11,1,1,0,0,1,.3.31A0.89,0.89,0,0,1,80,76.54Zm-0.11,2.08v6.84H78.48V78.62h1.38Z" transform="translate(-0.35 0.07)" fill="#1d1d1b"/><path d="M88.44,83.77v1.31a5.91,5.91,0,0,1-1.26.61,5.09,5.09,0,0,1-1.49.2,3.2,3.2,0,0,1-1.39-.29,3.07,3.07,0,0,1-1.05-.81,3.56,3.56,0,0,1-.65-1.17,4.22,4.22,0,0,1-.23-1.38,4,4,0,0,1,.4-1.82,3,3,0,0,1,1.13-1.23,3.16,3.16,0,0,1,1.66-.44,2.71,2.71,0,0,1,2.21,1,4.33,4.33,0,0,1,.8,2.82H83.74a2.12,2.12,0,0,0,2.28,2A4.61,4.61,0,0,0,88.44,83.77Zm-4.66-2.14h3.45a1.79,1.79,0,0,0-.13-0.68,1.69,1.69,0,0,0-.35-0.55,1.51,1.51,0,0,0-1.15-.44,1.7,1.7,0,0,0-1.23.43A2.12,2.12,0,0,0,83.78,81.63Z" transform="translate(-0.35 0.07)" fill="#1d1d1b"/><path d="M92,78.71v0.88h0a2.71,2.71,0,0,1,1.47-1A2.3,2.3,0,0,1,94,78.55a2.25,2.25,0,0,1,1.18.31,2.19,2.19,0,0,1,.83.94,3.41,3.41,0,0,1,.32,1.54v4.22H95V81.3a1.9,1.9,0,0,0-.35-1.21,1.2,1.2,0,0,0-1-.44,1.65,1.65,0,0,0-.84.22,4,4,0,0,0-.87.75v4.93H90.58V78.71H92Z" transform="translate(-0.35 0.07)" fill="#1d1d1b"/><path d="M8.7,54C3,54,.35,57.58.35,61.07v7.66h3.6V61.07c0-2.18,1.26-5.7,4.75-5.7s4.75,3.52,4.75,5.7v7.66H17V61.07C17,57.58,14.4,54,8.7,54Z" transform="translate(-0.35 0.07)" fill="#1d1d1b"/><path d="M63,61.88c0,2.18-1.26,5.71-4.75,5.71s-4.75-3.52-4.75-5.71V54.22h-3.6v7.66c0,3.48,2.65,7.09,8.35,7.09s8.35-3.6,8.35-7.09V54.22H63v7.66Z" transform="translate(-0.35 0.07)" fill="#1d1d1b"/><path d="M28.39,54.17c-3.49-.09-8.83,2.2-8.63,7.62s5.26,7.7,8.91,7.12a6.21,6.21,0,0,0,2.92-1.25V66.39a6.83,6.83,0,0,1-3.6.72c-4.2-.24-4.55-4.21-4.54-5.82,0-2.51,1.19-5.9,4.83-5.8s4.46,4.23,4.46,5.84v7.39h3.62V61.3C36.36,58.77,34.28,54.33,28.39,54.17Z" transform="translate(-0.35 0.07)" fill="#1d1d1b"/><path d="M45.2,69.41c-0.72-.36-1.71-1.48-1.64-4.74,0.08-3.67,0-8.2,0-8.2h3.35V54.22H43.57v-6.4H39.91s0,14.16,0,16.1c0,5.82,2.81,6.59,4.5,7a6,6,0,0,0,3.31-.09V69.57A4,4,0,0,1,45.2,69.41Z" transform="translate(-0.35 0.07)" fill="#1d1d1b"/><path d="M75.16,54.16C71.9,54.49,70,57,70,60.59V68.8h3.64V59.33c0-.75.58-3,2.07-3.45a5,5,0,0,1,2.53-.06V54.36A6.2,6.2,0,0,0,75.16,54.16Z" transform="translate(-0.35 0.07)" fill="#1d1d1b"/><path d="M87.23,54.17c-3.49-.09-8.82,2.2-8.63,7.62s5.26,7.7,8.91,7.12a6.18,6.18,0,0,0,2.92-1.25V66.39a6.81,6.81,0,0,1-3.6.72c-4.2-.24-4.54-4.21-4.54-5.82,0-2.51,1.19-5.9,4.83-5.8s4.46,4.23,4.46,5.84v7.39H95.2V61.3C95.2,58.77,93.12,54.33,87.23,54.17Z" transform="translate(-0.35 0.07)" fill="#1d1d1b"/><path d="M57,6.45C52.22,5,49.28,8.5,47.94,13c-1.09,3.58-1.32,4.53-2,6.39-0.91,2.61-3.08,2.81-4.78.79-2-2.36-4.51-5.83-6-7.54-1.91-2.22-6.51-4.09-8.84-1.21-3.52,4.35,1.15,9.23,3.61,12.15,1.7,2.06,3.77,3.48,3.1,4.66a1.57,1.57,0,0,1-1.5.57c-1.71,0-7.39-1.57-8.69-1.81-1.13-.21-2-0.13-2.28.7-0.38,1,1,3.88,4.74,5.79s9.59,2.83,10.16,2.95c2.15,0.45,1.73,1.5,1.22,2s-1.08.87-1,1.42c0.3,1.36,3.22,1.63,5,1.93a11,11,0,0,0,5.43-.18c1.5-.6,1.58-1.43,2.62-1.84,1.38-.53,1.86-0.06,4.84.5a17.69,17.69,0,0,0,7.11-.7c3.46-1.16,4.88-2.26,4.87-2.79s-0.6-.59-1.22-0.66a14.21,14.21,0,0,1-4.07-1.06c-0.85-.54-0.21-1.52,1.53-2.22s7.36-3,9.46-4.93,4.11-5,2.33-6.86-4.85.06-6.52,0.83a67.87,67.87,0,0,1-7.1,3.2c-1.09.24-3.12,0.17-2.17-2.3,1.19-3,1.75-4.91,2.48-6.74C61.2,13.75,62.49,8.15,57,6.45m8.53,6.69a42.09,42.09,0,0,1-2,6.29c0,0.11,0,.15.1,0.1,0.66-.31,3.64-1.8,6.81-3.15s9-1.31,7.53,5.19S68.76,31.9,68,32.29s-1.66.76-2,1c-0.14.09-.22,0.2,0,0.27,0.8,0.21,3.52.06,3.49,1.19s-2,3.25-7.23,5.46A18.39,18.39,0,0,1,50.7,41.27a0.08,0.08,0,0,0-.09,0c-0.31.33-2.95,2.87-10.43,1.58-5.39-.93-6.72-1.46-7.93-2.91a1.84,1.84,0,0,1-.12-2.09c0.12-.24.13-0.37,0-0.4C24,35.78,19,30.65,17.25,27.41c-0.91-1.65-.63-2.75-0.17-3.44,0.65-1,2.81-1.06,5.05-.48l4.38,1.14c0.18,0,.2,0,0.09-0.14-0.62-.78-2.82-3.56-4-5.33-1.87-2.93-4.21-10.71,1.89-13.91,6.78-3.53,12.68,2.7,14,4.32C39.71,11,42,14.11,42.2,14.43c0.29,0.5.44,0.07,0.44,0.07a60.88,60.88,0,0,1,3-8.39,11.34,11.34,0,0,1,11.87-6C65.84,1.64,66.15,10.07,65.48,13.14Z" transform="translate(-0.35 0.07)" fill="#1d1d1b"/></svg>