<svg id="Capa_1" data-name="Capa 1" xmlns="http://www.w3.org/2000/svg" width="564" height="95.89" viewBox="0 0 564 95.89"><title>Sin título-2</title><path d="M529.69,64.32h4.79V30.85h-4.79V64.32Zm-15.36-25.9a22.87,22.87,0,0,1,1.55,9.27,21.77,21.77,0,0,1-1.6,9.18q-1.62,3.38-4.39,3.38t-4.36-3.38A22.38,22.38,0,0,1,504,47.55a21.62,21.62,0,0,1,1.62-9.19Q507.19,35,509.94,35h0.25q2.61,0,4.15,3.45M502.23,35.2q-3,4.78-3,12.4t3,12.39q2.94,4.67,7.8,4.67c3.21,0,5.8-1.59,7.81-4.77s3-7.31,3-12.39-1-9-3-12.26-4.55-4.83-7.61-4.83q-4.86,0-7.91,4.78M483,58.48a71.5,71.5,0,0,0,6.11-8.13,24.5,24.5,0,0,0,2.5-5.27,14.41,14.41,0,0,0,.71-4.3,10.22,10.22,0,0,0-2.84-7.43,9.65,9.65,0,0,0-7.23-2.93,12.64,12.64,0,0,0-8,3.19v6.09a12.14,12.14,0,0,1,3.51-3.34,7.58,7.58,0,0,1,4-1.19A5.58,5.58,0,0,1,486,36.87a6.39,6.39,0,0,1,1.6,4.54,10.93,10.93,0,0,1-.85,4.12,39.12,39.12,0,0,1-3.64,6.16q-2.8,4.08-7.52,9.92l-2,2.37v0.34h21.19V59.7H482ZM463.21,30.85h-3.77V75.61h3.77V30.85ZM417.55,64.32h4.8V30.85h-4.8V64.32ZM402.2,38.42a23,23,0,0,1,1.55,9.27,21.65,21.65,0,0,1-1.61,9.18c-1.06,2.26-2.53,3.38-4.38,3.38s-3.31-1.12-4.36-3.38a22.37,22.37,0,0,1-1.59-9.32,21.62,21.62,0,0,1,1.62-9.19Q395.05,35,397.8,35H398q2.62,0,4.16,3.45M390.08,35.2c-2,3.19-3,7.32-3,12.4S388,56.87,390,60s4.57,4.67,7.81,4.67,5.8-1.59,7.8-4.77,3-7.31,3-12.39-1-9-3-12.26-4.54-4.83-7.61-4.83q-4.85,0-7.91,4.78M372.15,58.48a72.63,72.63,0,0,0,6.1-8.13,24.67,24.67,0,0,0,2.5-5.27,14.56,14.56,0,0,0,.71-4.3,10.21,10.21,0,0,0-2.84-7.43,9.63,9.63,0,0,0-7.22-2.93,12.66,12.66,0,0,0-8.06,3.19v6.09a12.21,12.21,0,0,1,3.51-3.34,7.6,7.6,0,0,1,4-1.19,5.57,5.57,0,0,1,4.26,1.71,6.38,6.38,0,0,1,1.6,4.54,10.87,10.87,0,0,1-.85,4.12,37.32,37.32,0,0,1-3.64,6.16q-2.79,4.08-7.51,9.92l-2,2.37v0.34h21.18V59.7H371.12Zm-25.33,4.13a5.27,5.27,0,0,1-3.54-1.2,3.7,3.7,0,0,1-1.42-2.95q0-3.1,3.39-5.11a15.39,15.39,0,0,1,8.55-1.81v7.82q-3.55,3.25-7,3.25m10.28-.41c-0.4,0-.59-0.42-0.59-1.28V45.29a5.73,5.73,0,0,0-2.22-4.86,9,9,0,0,0-5.61-1.68,15.34,15.34,0,0,0-8.1,2.68v2.75c2.75-2.13,5.3-3.19,7.67-3.19q5.55,0,5.56,5.13V49.3q-7,.35-10.83,2.71a7.27,7.27,0,0,0-3.79,6.45,6,6,0,0,0,2,4.51,6.71,6.71,0,0,0,4.79,1.85,12.74,12.74,0,0,0,7.86-3.11,6.91,6.91,0,0,0,.52,2.5,1.36,1.36,0,0,0,1.28.61q1.6,0,5.07-2.62V60q-2.81,2.23-3.57,2.23M332.26,38.75q-4.29,0-8.78,7.09h-0.12v-6.6H320.7V64.32h2.67V48.57q4.28-7.2,8-7.2c1.27,0,3,1,5,2.86L338,41.72c-2.2-2-4.12-3-5.75-3M313.63,64.32V39.24H311V56.85a13.26,13.26,0,0,1-3.7,4.14,8,8,0,0,1-4.45,1.2,6.57,6.57,0,0,1-5-2,7.56,7.56,0,0,1-1.91-5.48V39.24h-2.67V54.78q0,4.8,2.65,7.42a9.08,9.08,0,0,0,6.68,2.62,9.24,9.24,0,0,0,4.67-1.06,11.68,11.68,0,0,0,3.59-3.57H311v4.14h2.67Zm-33.15-33.4-1.83,2.35v6h-6.76v2.18h6.76v18a4.88,4.88,0,0,0,1.66,3.92,6.16,6.16,0,0,0,4.15,1.42,11.87,11.87,0,0,0,5.18-1.28V61a11.07,11.07,0,0,1-4.58,1.22q-2.57,0-3.15-1.13a12.26,12.26,0,0,1-.58-4.73V41.42h7V39.24h-7V30.92h-0.85Zm-21.7,31.69a5.31,5.31,0,0,1-3.55-1.2,3.72,3.72,0,0,1-1.41-2.95q0-3.1,3.39-5.11a15.4,15.4,0,0,1,8.56-1.81v7.82c-2.37,2.16-4.69,3.25-7,3.25m10.28-.41c-0.4,0-.6-0.42-0.6-1.28V45.29a5.73,5.73,0,0,0-2.21-4.86,9,9,0,0,0-5.61-1.68,15.33,15.33,0,0,0-8.1,2.68v2.75Q256.65,41,260.2,41q5.57,0,5.57,5.13V49.3q-7,.35-10.83,2.71a7.27,7.27,0,0,0-3.78,6.45,6,6,0,0,0,2,4.51,6.74,6.74,0,0,0,4.8,1.85,12.74,12.74,0,0,0,7.86-3.11,6.91,6.91,0,0,0,.51,2.5,1.37,1.37,0,0,0,1.28.61q1.6,0,5.07-2.62V60c-1.87,1.49-3.06,2.23-3.57,2.23m-43.84-23V64.32h2.67V46.74q3.22-5.36,8.2-5.37,6.82,0,6.82,8.67V64.32h2.67V49a10.7,10.7,0,0,0-2.53-7.55,8.86,8.86,0,0,0-6.8-2.73q-5.13,0-8.26,4.86h-0.11V39.24h-2.67Zm-18.27,25a15,15,0,0,0,4,.48,9.5,9.5,0,0,0,6.21-2,6.27,6.27,0,0,0,2.41-5.06q0-4.31-6.27-7.85l-1.77-1A14,14,0,0,1,208.67,47a2.32,2.32,0,0,1-.8-1.66,1.89,1.89,0,0,1,.89-1.63,4,4,0,0,1,2.33-.61q2.81,0,7.23,2.67V40.82a16,16,0,0,0-7.55-2.07A8.89,8.89,0,0,0,205,40.58a5.8,5.8,0,0,0-2.25,4.71,6.52,6.52,0,0,0,1.49,4.13q1.48,1.89,6.29,4.57a16.87,16.87,0,0,1,3.11,2.09,2.44,2.44,0,0,1,.73,1.81,2.19,2.19,0,0,1-1.13,1.83,4.59,4.59,0,0,1-2.67.76,10,10,0,0,1-3.69-.91,22.63,22.63,0,0,1-4.3-2.39v5.35a26.63,26.63,0,0,0,4.39,1.76M183.1,44.67a6.12,6.12,0,0,1,4.38-1.61,5.69,5.69,0,0,1,4.25,1.61,6.88,6.88,0,0,1,1.77,4.58H180.88a7.9,7.9,0,0,1,2.22-4.58m15.3,6.92q0-5.86-3-9.35a9.91,9.91,0,0,0-8-3.49,10.84,10.84,0,0,0-8.42,3.59,13.34,13.34,0,0,0-3.25,9.31,14.15,14.15,0,0,0,1.54,6.72,12.49,12.49,0,0,0,4.1,4.62,11.86,11.86,0,0,0,6.71,1.72,19,19,0,0,0,5.27-.66A16.52,16.52,0,0,0,198,61.87V57a14.93,14.93,0,0,1-9,3.05,7.94,7.94,0,0,1-5.73-2.12,8.18,8.18,0,0,1-2.42-5.72h17.64V51.59ZM170,64.32V39.24h-5V57.15q-2.49,3.46-6,3.46c-1.89,0-3.21-.52-4-1.56S154,56.17,154,53.54V39.24h-5V53.61q0,4.72,1,6.75a7.68,7.68,0,0,0,3,3.22,8.43,8.43,0,0,0,4.37,1.18,9.38,9.38,0,0,0,4.05-1,11.61,11.61,0,0,0,3.62-2.69v3.22h5Zm-32.93-4.64-0.38.11c-1.24.4-2,.64-2.41,0.72a7.61,7.61,0,0,1-1.39.11,7.84,7.84,0,0,1-6-2.44,8.74,8.74,0,0,1-2.31-6.27,8.36,8.36,0,0,1,2-5.72A6.82,6.82,0,0,1,128.15,45a6.52,6.52,0,0,1,1.87-.79,20.65,20.65,0,0,1,4.3-.28h3.15v15.7Zm-13.85-17A12.28,12.28,0,0,0,119.64,52a12.56,12.56,0,0,0,3.5,9.13,11.81,11.81,0,0,0,8.85,3.6,21.9,21.9,0,0,0,5.49-.87V77.12h5V39.24H133q-6.15,0-9.78,3.46M103.85,61.3a3.51,3.51,0,0,1-2.58-1,3.67,3.67,0,0,1,.06-5.09,11,11,0,0,1,3.58-2l3.33-1.28v7.44a6.26,6.26,0,0,1-4.39,1.94M112.94,45a6.53,6.53,0,0,0-.83-2.27,6.8,6.8,0,0,0-1.47-1.81,9.6,9.6,0,0,0-6.52-2.13q-5.43,0-8.31,3.41v5.42q3.84-4.2,7.9-4.2,4.53,0,4.53,4.52v1.34l-6.36,2.18a11.54,11.54,0,0,0-4.84,3,6.12,6.12,0,0,0-1.71,4.25,5.94,5.94,0,0,0,6.11,6.08,10.78,10.78,0,0,0,6.73-2.45c0.39,1.67,1.63,2.51,3.77,2.51a5.93,5.93,0,0,0,2.14-.39,16.4,16.4,0,0,0,2.71-1.49v-3A6,6,0,0,1,114,61.19c-0.59,0-.88-0.43-0.88-1.28V49.25a34.45,34.45,0,0,0-.17-4.3m-37.7-1.24h4.36V54.84a22.41,22.41,0,0,0,.31,4.62,7.23,7.23,0,0,0,.79,2,5.74,5.74,0,0,0,1.16,1.35,8.31,8.31,0,0,0,5.68,2,12.52,12.52,0,0,0,6.25-1.61V58.52a11.1,11.1,0,0,1-5.65,1.77q-3.57,0-3.58-4.3V43.71h7.94V39.24H84.57V34.06l-9.32,9.16v0.49ZM60.44,64.28a15,15,0,0,0,4,.48,9.49,9.49,0,0,0,6.21-2A6.26,6.26,0,0,0,73,57.73q0-4.31-6.27-7.85l-1.77-1A13.71,13.71,0,0,1,62.17,47a2.32,2.32,0,0,1-.8-1.66,1.89,1.89,0,0,1,.88-1.63,4,4,0,0,1,2.33-.61c1.87,0,4.29.89,7.23,2.67V40.82a16,16,0,0,0-7.55-2.07,8.9,8.9,0,0,0-5.79,1.83,5.8,5.8,0,0,0-2.25,4.71,6.54,6.54,0,0,0,1.48,4.13Q59.19,51.32,64,54a16.74,16.74,0,0,1,3.12,2.09,2.45,2.45,0,0,1,.72,1.81,2.18,2.18,0,0,1-1.12,1.83,4.63,4.63,0,0,1-2.67.76,10,10,0,0,1-3.7-.91A22.9,22.9,0,0,1,56,57.18v5.35a26.58,26.58,0,0,0,4.4,1.76M36.6,44.67A6.12,6.12,0,0,1,41,43.06a5.68,5.68,0,0,1,4.25,1.61A6.9,6.9,0,0,1,47,49.25H34.37a8,8,0,0,1,2.22-4.58m15.31,6.92q0-5.86-3-9.35a9.93,9.93,0,0,0-8-3.49,10.83,10.83,0,0,0-8.42,3.59,13.34,13.34,0,0,0-3.24,9.31,14.15,14.15,0,0,0,1.54,6.72A12.49,12.49,0,0,0,34.95,63a11.82,11.82,0,0,0,6.7,1.72,19,19,0,0,0,5.27-.66,16.62,16.62,0,0,0,4.55-2.18V57a15,15,0,0,1-9.05,3.05,8,8,0,0,1-5.74-2.12,8.18,8.18,0,0,1-2.41-5.72H51.91V51.59ZM15,60.07a16.16,16.16,0,0,1-4.61-.44,5.93,5.93,0,0,1-2.43-1.69A8.6,8.6,0,0,1,6,52a9.39,9.39,0,0,1,2.19-6.54A7.57,7.57,0,0,1,14.11,43a10.32,10.32,0,0,1,4.69,1.17v15.9H15Zm3.84-20.31a16.19,16.19,0,0,0-5.46-1.06,11.86,11.86,0,0,0-8.87,3.57A12.53,12.53,0,0,0,1,51.37q0,5.92,3.31,9.43a11.61,11.61,0,0,0,8.88,3.52H23.8V26.24h-5V39.76Z" transform="translate(-1 -0.74)" fill="#1d1d1b"/><path d="M191.61,20.08a6,6,0,0,1-1.67-4.35,6.05,6.05,0,0,1,1.67-4.38,5.51,5.51,0,0,1,4.16-1.75,5.45,5.45,0,0,1,4.12,1.76,6.08,6.08,0,0,1,1.67,4.36,6,6,0,0,1-1.66,4.35,5.83,5.83,0,0,1-8.29,0m-1.19-9.82a7.49,7.49,0,0,0-2.15,5.47,7.43,7.43,0,0,0,2.15,5.44,7.62,7.62,0,0,0,10.67,0,7.47,7.47,0,0,0,2.13-5.44,7.52,7.52,0,0,0-2.13-5.47,7.61,7.61,0,0,0-10.67,0m-9.15-6.77-1.07,1.37v3.5h-4V9.64h4V20.22a2.85,2.85,0,0,0,1,2.3,3.62,3.62,0,0,0,2.43.83,6.92,6.92,0,0,0,3-.75V21.1a6.48,6.48,0,0,1-2.69.72,1.93,1.93,0,0,1-1.84-.66,7.07,7.07,0,0,1-.35-2.77V9.64h4.13V8.36h-4.13V3.49h-0.49ZM162.69,8.36v14.7h1.57V12.76q1.89-3.15,4.81-3.15,4,0,4,5.08v8.38h1.57v-9a6.23,6.23,0,0,0-1.49-4.42,5.15,5.15,0,0,0-4-1.6,5.55,5.55,0,0,0-4.84,2.84h-0.06V8.36h-1.57Zm-12.94,2.37a4.64,4.64,0,0,1,3.12-1.13c2.55,0,4.09,1.43,4.65,4.3H148a5.53,5.53,0,0,1,1.75-3.17M157.5,10a6.55,6.55,0,0,0-9.44.21,7.64,7.64,0,0,0-1.92,5.34,7.82,7.82,0,0,0,2.08,5.61,6.91,6.91,0,0,0,5.26,2.2,9,9,0,0,0,5.65-1.95V19.63a8.54,8.54,0,0,1-5.46,2.19,5.74,5.74,0,0,1-4.15-1.71,5.59,5.59,0,0,1-1.76-4.17,5.86,5.86,0,0,1,.05-0.77h11.58A7,7,0,0,0,157.5,10M140.8,23.06h1.58V8.36H140.8v14.7Zm0-19.64h1.58V0.74H140.8V3.42ZM115.09,8.36v14.7h1.57V12.76q1.86-3.15,4.42-3.15a3.39,3.39,0,0,1,2.8,1.32,5.92,5.92,0,0,1,1,3.76v8.38h1.58V13a9.77,9.77,0,0,1,2.07-2.62,3.62,3.62,0,0,1,2.36-.82A3.3,3.3,0,0,1,133.77,11a6.23,6.23,0,0,1,1,3.75v8.34h1.56V14a6.42,6.42,0,0,0-1.4-4.33,4.62,4.62,0,0,0-3.69-1.63q-3,0-5.1,3.53-1.38-3.52-4.75-3.53a5.36,5.36,0,0,0-4.68,2.87h-0.06V8.36h-1.57Zm-6,14.7h1.58V8.36h-1.58v14.7Zm0-19.64h1.58V0.74h-1.58V3.42ZM101.5,8.08a6.61,6.61,0,0,0-5.12,2.19,8.06,8.06,0,0,0-2,5.67,7.37,7.37,0,0,0,2,5.37,6.93,6.93,0,0,0,5.22,2,12.71,12.71,0,0,0,4.08-.75V21a10.42,10.42,0,0,1-4,.85,5.41,5.41,0,0,1-4.13-1.64A6.18,6.18,0,0,1,96,15.76a6.37,6.37,0,0,1,1.54-4.44,5.14,5.14,0,0,1,4-1.71,9.63,9.63,0,0,1,3.82.93V8.79a12.63,12.63,0,0,0-3.9-.72m-21.69,12a6,6,0,0,1-1.67-4.35,6.06,6.06,0,0,1,1.67-4.38A5.54,5.54,0,0,1,84,9.6a5.47,5.47,0,0,1,4.13,1.76,6.09,6.09,0,0,1,1.67,4.36,6,6,0,0,1-1.67,4.35A5.48,5.48,0,0,1,84,21.81a5.54,5.54,0,0,1-4.16-1.73m-1.18-9.82a7.48,7.48,0,0,0-2.15,5.47,7.43,7.43,0,0,0,2.15,5.44,7.62,7.62,0,0,0,10.67,0,7.47,7.47,0,0,0,2.13-5.44,7.53,7.53,0,0,0-2.13-5.47,7.6,7.6,0,0,0-10.67,0m-17.7-1.9v14.7H62.5V12.76q1.88-3.15,4.8-3.15,4,0,4,5.08v8.38h1.56v-9a6.25,6.25,0,0,0-1.48-4.42,5.17,5.17,0,0,0-4-1.6,5.55,5.55,0,0,0-4.84,2.84H62.5V8.36H60.93ZM45.71,20.08A6,6,0,0,1,44,15.73a6.06,6.06,0,0,1,1.67-4.38,5.78,5.78,0,0,1,8.29,0,6.12,6.12,0,0,1,1.67,4.36A6,6,0,0,1,54,20.08a5.84,5.84,0,0,1-8.3,0m-1.18-9.82a7.51,7.51,0,0,0-2.15,5.47,7.46,7.46,0,0,0,2.15,5.44,7.62,7.62,0,0,0,10.67,0,7.48,7.48,0,0,0,2.13-5.44,7.53,7.53,0,0,0-2.13-5.47,7.61,7.61,0,0,0-10.67,0M35.69,8.08a6.63,6.63,0,0,0-5.12,2.19,8.09,8.09,0,0,0-2,5.67,7.33,7.33,0,0,0,2,5.37,6.94,6.94,0,0,0,5.21,2,12.75,12.75,0,0,0,4.09-.75V21a10.46,10.46,0,0,1-4,.85,5.39,5.39,0,0,1-4.13-1.64,6.17,6.17,0,0,1-1.54-4.42,6.36,6.36,0,0,1,1.54-4.44,5.13,5.13,0,0,1,4-1.71,9.65,9.65,0,0,1,3.82.93V8.79a12.7,12.7,0,0,0-3.9-.72M16.29,10.74A4.64,4.64,0,0,1,19.41,9.6q3.82,0,4.65,4.3H14.54a5.49,5.49,0,0,1,1.75-3.17M24,10a6.24,6.24,0,0,0-4.62-1.91,6.23,6.23,0,0,0-4.82,2.12,7.67,7.67,0,0,0-1.92,5.34,7.84,7.84,0,0,0,2.08,5.61A6.91,6.91,0,0,0,20,23.35a9,9,0,0,0,5.66-1.95V19.63a8.54,8.54,0,0,1-5.46,2.19A5.76,5.76,0,0,1,16,20.1a5.6,5.6,0,0,1-1.76-4.17,5.86,5.86,0,0,1,.05-0.77H25.92A7.07,7.07,0,0,0,24,10M9.13,8.08Q6.62,8.08,4,12.23H3.92V8.36H2.36v14.7H3.92V13.83Q6.44,9.61,8.64,9.6c0.75,0,1.74.56,3,1.68L12.5,9.82A5.49,5.49,0,0,0,9.13,8.08" transform="translate(-1 -0.74)" fill="#1d1d1b"/><path d="M441.22,30.47l0.49-.34,3,3.71a29.85,29.85,0,0,0-6.47,5.49,21.16,21.16,0,0,0-4,7,11.72,11.72,0,0,1,5.38-1.39,9,9,0,0,1,6.78,2.85,9.7,9.7,0,0,1,2.75,7,9.81,9.81,0,0,1-3,7.24,10,10,0,0,1-7.29,3,9.83,9.83,0,0,1-7.76-3.38,12.92,12.92,0,0,1-3-8.83,23,23,0,0,1,1.53-8.15A27.31,27.31,0,0,1,434,37,35,35,0,0,1,441.22,30.47Zm-8,20.91a15.47,15.47,0,0,0-.2,2.56,6.79,6.79,0,0,0,1.67,4.73,5.49,5.49,0,0,0,4.28,1.85,5.12,5.12,0,0,0,3.86-1.58,5.54,5.54,0,0,0,1.52-4,5.22,5.22,0,0,0-1.62-4,6,6,0,0,0-4.28-1.52,7.08,7.08,0,0,0-2.47.41A14.2,14.2,0,0,0,433.18,51.38Z" transform="translate(-1 -0.74)" fill="#1d1d1b"/><path d="M543,30.57h22L549.59,65l-4.36-1.84,12.45-28H543V30.57Z" transform="translate(-1 -0.74)" fill="#1d1d1b"/><path d="M432.07,83.25a9.28,9.28,0,0,0-4-1c-3.93,0-5.74,3.31-5.74,6.49s1.67,6.38,5.91,6.38a9.79,9.79,0,0,0,4.13-1v1.71a13.17,13.17,0,0,1-4.37.79c-3,0-7.41-1.84-7.41-7.75,0-5.57,3.79-8.19,7.41-8.19a12.52,12.52,0,0,1,4.1.75v1.81Z" transform="translate(-1 -0.74)" fill="#1d1d1b"/><path d="M450.07,88.68a7.8,7.8,0,1,1-15.6,0c0-4.3,2.94-8,7.82-8S450.07,84.31,450.07,88.68Zm-13.83,0c0,3.89,2.73,6.49,6,6.49s6-2.63,6-6.49A6.05,6.05,0,1,0,436.24,88.64Z" transform="translate(-1 -0.74)" fill="#1d1d1b"/><path d="M455.05,83.66a5.88,5.88,0,0,1,5-3,5.62,5.62,0,0,1,4.57,2.15A8.63,8.63,0,0,1,465.87,88v8.3h-1.64V88.16c0-2.36-.37-3.34-1-4.16a4.18,4.18,0,0,0-3.41-1.74,5.4,5.4,0,0,0-3.72,1.67,7.52,7.52,0,0,0-1.09,1.64V96.32h-1.64V81h1.64v2.66Z" transform="translate(-1 -0.74)" fill="#1d1d1b"/><path d="M478.37,83.76a7.44,7.44,0,0,0-4.2-1.57c-2.08,0-3.31,1.33-3.31,2.59,0,1.78,2.15,2.56,3.65,3.07s4.3,1.54,4.3,4.54c0,2-1.78,4.23-5,4.23a8.68,8.68,0,0,1-4.61-1.4v-1.6A10.27,10.27,0,0,0,474,95.1c2.12,0,3.17-1.26,3.17-2.56,0-1.88-1.67-2.49-4.23-3.48-1-.38-3.62-1.37-3.62-4.13,0-1.88,1.6-4.23,4.95-4.23a8.17,8.17,0,0,1,4.1,1.3v1.77Z" transform="translate(-1 -0.74)" fill="#1d1d1b"/><path d="M494.35,96.32h-1.64V93.8a6.47,6.47,0,0,1-5.22,2.83,5.44,5.44,0,0,1-4.64-2.42,8.41,8.41,0,0,1-1-4.57V81h1.64v8.64a7.17,7.17,0,0,0,.61,3.69,3.93,3.93,0,0,0,3.52,1.88,5.59,5.59,0,0,0,3.89-1.6,6.77,6.77,0,0,0,1.16-1.88V81h1.64V96.32Z" transform="translate(-1 -0.74)" fill="#1d1d1b"/><path d="M500.66,96.32H499V73h1.64V96.32Z" transform="translate(-1 -0.74)" fill="#1d1d1b"/><path d="M508.31,81h4.3v1.37h-4.3v9.39c0,1.43,0,1.74.31,2.25a2,2,0,0,0,2,1,6.28,6.28,0,0,0,2.76-.72v1.57a7.37,7.37,0,0,1-3.18.79A3.55,3.55,0,0,1,507,94.79a7,7,0,0,1-.34-3V82.36h-4.13V81h4.13V77.34l1.13-1.43h0.51V81Z" transform="translate(-1 -0.74)" fill="#1d1d1b"/><path d="M530.3,88.68a7.8,7.8,0,1,1-15.6,0c0-4.3,2.94-8,7.82-8S530.3,84.31,530.3,88.68Zm-13.83,0c0,3.89,2.73,6.49,6,6.49s6-2.63,6-6.49A6.05,6.05,0,1,0,516.47,88.64Z" transform="translate(-1 -0.74)" fill="#1d1d1b"/><path d="M543.3,84c-0.79-.68-1.91-1.67-3-1.67-1.78,0-3.62,2.15-4.95,4.34v9.63h-1.64V81h1.64v4c0.65-1,2.9-4.34,5.46-4.34,1.43,0,2.7,1.13,3.48,1.81Z" transform="translate(-1 -0.74)" fill="#1d1d1b"/><path d="M548.25,96.32h-1.6V81h1.6V96.32ZM548,78.54h-1.13l3.55-5.33h2.77Z" transform="translate(-1 -0.74)" fill="#1d1d1b"/><path d="M564.74,95c-1.43,1-2.39,1.6-3.07,1.6-1,0-1-.75-1.13-1.91a7.76,7.76,0,0,1-4.81,1.91,4,4,0,0,1-4.16-3.86c0-5,6.86-5.53,9-5.63V85.19c0-1.77-.82-3-3.38-3A7.4,7.4,0,0,0,552.45,84V82.33a9.36,9.36,0,0,1,4.92-1.64,5.47,5.47,0,0,1,3.86,1.37c0.89,1,1,1.81,1,3.58v7.85c0,0.44,0,1.26,0,1.37a0.3,0.3,0,0,0,.31.17,6.75,6.75,0,0,0,2.22-1.37V95Zm-4.2-6.55a12.87,12.87,0,0,0-4.2.65c-1.54.61-3.11,1.81-3.11,3.65s1.84,2.53,3,2.53a6.4,6.4,0,0,0,4.27-2V88.47Z" transform="translate(-1 -0.74)" fill="#1d1d1b"/></svg>