<svg id="Capa_1" data-name="Capa 1" xmlns="http://www.w3.org/2000/svg" width="620" height="83.96" viewBox="0 0 620 83.96"><title>Sin título-2</title><path d="M580.55,69.82h5.26V33h-5.26v36.8ZM563.67,41.34a25.16,25.16,0,0,1,1.71,10.19q0,6.38-1.76,10.09t-4.82,3.72q-3.06,0-4.8-3.72t-1.74-10.25q0-6.38,1.78-10.1t4.8-3.73h0.27q2.88,0,4.57,3.79M550.36,37.8Q547,43.05,547,51.43t3.24,13.62q3.23,5.13,8.57,5.14t8.59-5.24q3.31-5.24,3.31-13.62,0-8.17-3.31-13.47t-8.36-5.31q-5.35,0-8.69,5.26m-21.08,25.6A78.44,78.44,0,0,0,536,54.45a26.9,26.9,0,0,0,2.75-5.8,15.85,15.85,0,0,0,.78-4.73,11.24,11.24,0,0,0-3.12-8.17,10.61,10.61,0,0,0-7.95-3.22A13.89,13.89,0,0,0,519.61,36v6.69a13.32,13.32,0,0,1,3.85-3.68,8.32,8.32,0,0,1,4.36-1.31,6.14,6.14,0,0,1,4.69,1.89,7,7,0,0,1,1.76,5,12,12,0,0,1-.93,4.53,42.85,42.85,0,0,1-4,6.77q-3.07,4.48-8.27,10.91l-2.21,2.61v0.37h23.29V64.73h-14ZM507.46,33h-4.14V82.23h4.14V33Zm-50.2,36.8h5.27V33h-5.27v36.8ZM440.4,41.34a25.26,25.26,0,0,1,1.7,10.19q0,6.38-1.77,10.09t-4.81,3.72q-3.06,0-4.8-3.72T429,51.38q0-6.38,1.79-10.1t4.8-3.73h0.26q2.88,0,4.57,3.79M427.08,37.8c-2.22,3.5-3.34,8-3.34,13.63s1.08,10.19,3.24,13.62,5,5.14,8.59,5.14,6.37-1.75,8.58-5.24,3.31-8,3.31-13.62-1.1-9.94-3.31-13.47-5-5.31-8.36-5.31q-5.34,0-8.7,5.26m-19.72,25.6a79.79,79.79,0,0,0,6.71-8.94,27.12,27.12,0,0,0,2.75-5.8,16,16,0,0,0,.78-4.73,11.23,11.23,0,0,0-3.12-8.17,10.6,10.6,0,0,0-7.94-3.22A13.91,13.91,0,0,0,397.69,36v6.69a13.42,13.42,0,0,1,3.86-3.68,8.34,8.34,0,0,1,4.37-1.31,6.12,6.12,0,0,1,4.68,1.89,7,7,0,0,1,1.76,5,11.91,11.91,0,0,1-.93,4.53,40.86,40.86,0,0,1-4,6.77q-3.07,4.48-8.25,10.91L397,69.45v0.37h23.29V64.73h-14Zm-27.84,4.54a5.8,5.8,0,0,1-3.89-1.32,4.07,4.07,0,0,1-1.57-3.24q0-3.41,3.73-5.62a16.91,16.91,0,0,1,9.4-2v8.6q-3.9,3.57-7.67,3.57m11.3-.45c-0.43,0-.65-0.47-0.65-1.41V48.9a6.3,6.3,0,0,0-2.44-5.35,9.91,9.91,0,0,0-6.17-1.85,16.84,16.84,0,0,0-8.9,2.94v3c3-2.34,5.82-3.51,8.43-3.51q6.11,0,6.11,5.64v3.5q-7.73.39-11.9,3a8,8,0,0,0-4.17,7.09,6.56,6.56,0,0,0,2.16,5,7.38,7.38,0,0,0,5.27,2,14,14,0,0,0,8.64-3.42,7.6,7.6,0,0,0,.57,2.75,1.49,1.49,0,0,0,1.41.67q1.76,0,5.57-2.88V65c-2.06,1.64-3.36,2.46-3.93,2.46M363.52,41.7q-4.71,0-9.65,7.8h-0.12V42.24h-2.93V69.82h2.93V52.5q4.7-7.91,8.84-7.92,2.09,0,5.55,3.15L369.84,45c-2.42-2.18-4.53-3.27-6.33-3.27M343,69.82V42.24h-2.93V61.6A14.62,14.62,0,0,1,336,66.16a8.77,8.77,0,0,1-4.9,1.32,7.22,7.22,0,0,1-5.45-2.19,8.32,8.32,0,0,1-2.1-6v-17h-2.94V59.33q0,5.28,2.91,8.15a10,10,0,0,0,7.34,2.88A10.14,10.14,0,0,0,336,69.19,12.8,12.8,0,0,0,340,65.26h0.12v4.55H343ZM306.6,33.1l-2,2.58v6.57h-7.43v2.4h7.43V64.48a5.37,5.37,0,0,0,1.83,4.32A6.78,6.78,0,0,0,311,70.36a13,13,0,0,0,5.69-1.41V66.13a12.18,12.18,0,0,1-5,1.35c-1.88,0-3-.42-3.47-1.25s-0.64-2.56-.64-5.2V44.64h7.73v-2.4h-7.73V33.1H306.6ZM282.74,67.93a5.84,5.84,0,0,1-3.9-1.32,4.09,4.09,0,0,1-1.55-3.24q0-3.41,3.73-5.62a16.93,16.93,0,0,1,9.4-2v8.6q-3.9,3.57-7.67,3.57m11.3-.45c-0.44,0-.66-0.47-0.66-1.41V48.9a6.3,6.3,0,0,0-2.43-5.35,9.92,9.92,0,0,0-6.17-1.85,16.85,16.85,0,0,0-8.9,2.94v3q4.53-3.5,8.43-3.51,6.12,0,6.12,5.64v3.5q-7.73.39-11.91,3a8,8,0,0,0-4.16,7.09,6.55,6.55,0,0,0,2.15,5,7.4,7.4,0,0,0,5.28,2,14,14,0,0,0,8.64-3.42,7.67,7.67,0,0,0,.56,2.75,1.5,1.5,0,0,0,1.41.67q1.76,0,5.57-2.88V65q-3.09,2.46-3.93,2.46m-48.2-25.24V69.82h2.94V50.48q3.54-5.9,9-5.9,7.5,0,7.5,9.53v15.7h2.94V53q0-5.31-2.78-8.3a9.74,9.74,0,0,0-7.47-3q-5.64,0-9.08,5.34h-0.12v-4.8h-2.94ZM225.76,69.77a16.51,16.51,0,0,0,4.37.53A10.46,10.46,0,0,0,237,68.12a6.89,6.89,0,0,0,2.64-5.56q0-4.74-6.9-8.63l-1.95-1.11a15.34,15.34,0,0,1-3.1-2.1,2.54,2.54,0,0,1-.88-1.83,2.07,2.07,0,0,1,1-1.79,4.41,4.41,0,0,1,2.56-.68q3.1,0,7.94,2.94V44A17.57,17.57,0,0,0,230,41.7a9.79,9.79,0,0,0-6.37,2,6.38,6.38,0,0,0-2.48,5.18,7.19,7.19,0,0,0,1.64,4.54q1.63,2.08,6.92,5a18.43,18.43,0,0,1,3.42,2.3,2.67,2.67,0,0,1,.8,2,2.41,2.41,0,0,1-1.24,2,5.06,5.06,0,0,1-2.93.84,11,11,0,0,1-4.06-1A24.93,24.93,0,0,1,220.93,62v5.88a29,29,0,0,0,4.82,1.93M199.55,48.21a6.72,6.72,0,0,1,4.81-1.77A6.26,6.26,0,0,1,209,48.21a7.6,7.6,0,0,1,1.95,5H197.11a8.72,8.72,0,0,1,2.44-5m16.82,7.61q0-6.44-3.27-10.28a10.89,10.89,0,0,0-8.74-3.84,11.92,11.92,0,0,0-9.26,3.94,14.67,14.67,0,0,0-3.57,10.24,15.56,15.56,0,0,0,1.7,7.39,13.72,13.72,0,0,0,4.51,5.08,13,13,0,0,0,7.37,1.89,20.87,20.87,0,0,0,5.79-.72,18.08,18.08,0,0,0,5-2.4V61.79a16.41,16.41,0,0,1-9.95,3.35,8.74,8.74,0,0,1-6.3-2.34A9,9,0,0,1,197,56.51h19.39V55.82Zm-31.17,14V42.24h-5.45V61.94q-2.74,3.8-6.63,3.81c-2.08,0-3.53-.57-4.36-1.72s-1.25-3.17-1.25-6.06V42.24h-5.45V58q0,5.19,1.13,7.42A8.47,8.47,0,0,0,166.52,69a9.29,9.29,0,0,0,4.81,1.3,10.3,10.3,0,0,0,4.45-1.06,12.73,12.73,0,0,0,4-3v3.53h5.45ZM149,64.72l-0.42.12c-1.36.44-2.24,0.71-2.65,0.79a8.46,8.46,0,0,1-1.53.11,8.62,8.62,0,0,1-6.56-2.68,9.62,9.62,0,0,1-2.54-6.9,9.18,9.18,0,0,1,2.25-6.29,7.36,7.36,0,0,1,1.6-1.36,7.11,7.11,0,0,1,2.05-.87,22.66,22.66,0,0,1,4.73-.31h3.46V64.6ZM133.77,46q-4,3.8-4,10.25a13.82,13.82,0,0,0,3.84,10,13,13,0,0,0,9.73,4,24.09,24.09,0,0,0,6-1V83.88h5.45V42.24H144.52q-6.75,0-10.75,3.81M112.43,66.49a3.86,3.86,0,0,1-2.83-1.08,4,4,0,0,1,.06-5.59,12.15,12.15,0,0,1,3.94-2.23l3.66-1.41v8.18a6.87,6.87,0,0,1-4.83,2.13m10-18a7.16,7.16,0,0,0-.92-2.49,7.46,7.46,0,0,0-1.62-2,10.55,10.55,0,0,0-7.17-2.34q-6,0-9.14,3.75v6q4.23-4.61,8.69-4.61,5,0,5,5v1.47l-7,2.39a12.66,12.66,0,0,0-5.32,3.25,6.74,6.74,0,0,0-1.87,4.67A6.47,6.47,0,0,0,105,68.34a6.54,6.54,0,0,0,4.8,1.9,11.86,11.86,0,0,0,7.4-2.7c0.42,1.84,1.8,2.76,4.14,2.76a6.55,6.55,0,0,0,2.35-.43,18.22,18.22,0,0,0,3-1.63V64.9a6.58,6.58,0,0,1-3.09,1.47c-0.64,0-1-.47-1-1.41V53.25a37.49,37.49,0,0,0-.19-4.72M81,47.16h4.8V59.39a24.61,24.61,0,0,0,.34,5.08A7.89,7.89,0,0,0,87,66.63a6.36,6.36,0,0,0,1.28,1.49A9.14,9.14,0,0,0,94.5,70.3a13.75,13.75,0,0,0,6.87-1.77V63.43a12.19,12.19,0,0,1-6.21,2q-3.93,0-3.93-4.73V47.16H100V42.24H91.23v-5.7L81,46.62v0.54ZM64.71,69.77a16.51,16.51,0,0,0,4.37.53,10.44,10.44,0,0,0,6.82-2.17,6.87,6.87,0,0,0,2.65-5.56q0-4.74-6.89-8.63l-2-1.11a15,15,0,0,1-3.1-2.1,2.55,2.55,0,0,1-.88-1.83,2.08,2.08,0,0,1,1-1.79,4.41,4.41,0,0,1,2.56-.68q3.09,0,7.94,2.94V44a17.57,17.57,0,0,0-8.3-2.28,9.8,9.8,0,0,0-6.37,2,6.38,6.38,0,0,0-2.47,5.18,7.2,7.2,0,0,0,1.63,4.54q1.64,2.08,6.91,5A18.21,18.21,0,0,1,72,60.75a2.68,2.68,0,0,1,.8,2,2.41,2.41,0,0,1-1.23,2,5.09,5.09,0,0,1-2.94.84,11,11,0,0,1-4.06-1A25,25,0,0,1,59.88,62v5.88a29,29,0,0,0,4.83,1.93M38.5,48.21a6.72,6.72,0,0,1,4.81-1.77A6.25,6.25,0,0,1,48,48.21a7.6,7.6,0,0,1,1.95,5H36.05a8.77,8.77,0,0,1,2.45-5m16.83,7.61q0-6.44-3.27-10.28a10.91,10.91,0,0,0-8.75-3.84A11.91,11.91,0,0,0,34,45.64a14.66,14.66,0,0,0-3.57,10.24,15.55,15.55,0,0,0,1.69,7.39,13.74,13.74,0,0,0,4.51,5.08,13,13,0,0,0,7.37,1.89,20.88,20.88,0,0,0,5.8-.72,18.18,18.18,0,0,0,5-2.4V61.79a16.44,16.44,0,0,1-10,3.35,8.75,8.75,0,0,1-6.31-2.34,9,9,0,0,1-2.65-6.29H55.33V55.82ZM14.71,65.14a17.88,17.88,0,0,1-5.07-.48A6.52,6.52,0,0,1,7,62.8a9.43,9.43,0,0,1-2.09-6.56A10.33,10.33,0,0,1,7.29,49a8.32,8.32,0,0,1,6.49-2.67,11.34,11.34,0,0,1,5.16,1.29V65.14H14.71Zm4.23-22.33a17.79,17.79,0,0,0-6-1.17,13,13,0,0,0-9.75,3.92,13.77,13.77,0,0,0-3.82,10q0,6.51,3.64,10.37a12.77,12.77,0,0,0,9.76,3.87H24.43V27.95H18.94V42.81Z" transform="translate(0.63 0.08)" fill="#1d1d1b"/><path d="M208.9,21.18a6.61,6.61,0,0,1-1.84-4.78,6.66,6.66,0,0,1,1.84-4.81,6.06,6.06,0,0,1,4.57-1.92A6,6,0,0,1,218,11.6a6.68,6.68,0,0,1,1.83,4.8A6.63,6.63,0,0,1,218,21.18a6.4,6.4,0,0,1-9.12,0M207.6,10.39a8.24,8.24,0,0,0-2.36,6,8.19,8.19,0,0,0,2.36,6,7.93,7.93,0,0,0,5.88,2.4,7.85,7.85,0,0,0,5.86-2.4,8.21,8.21,0,0,0,2.35-6,8.27,8.27,0,0,0-2.35-6A7.83,7.83,0,0,0,213.48,8a7.92,7.92,0,0,0-5.88,2.41M197.54,2.94l-1.17,1.51V8.3H192V9.7h4.36V21.33a3.12,3.12,0,0,0,1.07,2.53,4,4,0,0,0,2.67.91,7.59,7.59,0,0,0,3.34-.83V22.3a7.12,7.12,0,0,1-2.95.79c-1.1,0-1.77-.24-2-0.73a7.85,7.85,0,0,1-.38-3V9.7h4.53V8.3h-4.53V2.94h-0.54ZM177.11,8.3V24.46h1.73V13.13q2.08-3.46,5.29-3.46,4.38,0,4.39,5.59v9.21h1.72V14.6a6.84,6.84,0,0,0-1.64-4.86A5.66,5.66,0,0,0,184.23,8a6.11,6.11,0,0,0-5.32,3.12h-0.07V8.3h-1.73Zm-14.22,2.61a5.1,5.1,0,0,1,3.43-1.24c2.8,0,4.5,1.58,5.12,4.73H161a6.07,6.07,0,0,1,1.92-3.48m8.51-.83a7.2,7.2,0,0,0-10.38.23,8.41,8.41,0,0,0-2.11,5.88,8.6,8.6,0,0,0,2.28,6.16A7.59,7.59,0,0,0,167,24.77a9.9,9.9,0,0,0,6.21-2.14V20.68a9.4,9.4,0,0,1-6,2.4,6.33,6.33,0,0,1-4.57-1.88,6.15,6.15,0,0,1-1.93-4.58,6.45,6.45,0,0,1,.05-0.84h12.73a7.75,7.75,0,0,0-2.07-5.7M153,24.46h1.74V8.3H153V24.46Zm0-21.59h1.74v-3H153v3ZM124.78,8.3V24.46h1.72V13.13q2.05-3.46,4.87-3.46a3.73,3.73,0,0,1,3.08,1.45,6.51,6.51,0,0,1,1.15,4.13v9.21h1.74v-11a10.69,10.69,0,0,1,2.28-2.88,4,4,0,0,1,2.6-.9,3.63,3.63,0,0,1,3.1,1.51,6.84,6.84,0,0,1,1.11,4.12v9.17h1.72V14.53a7.06,7.06,0,0,0-1.54-4.76A5.08,5.08,0,0,0,142.54,8q-3.33,0-5.61,3.88Q135.42,8,131.72,8a5.89,5.89,0,0,0-5.14,3.16H126.5V8.3h-1.72Zm-6.59,16.16h1.74V8.3h-1.74V24.46Zm0-21.59h1.74v-3h-1.74v3ZM109.85,8a7.29,7.29,0,0,0-5.63,2.41,8.87,8.87,0,0,0-2.2,6.23,8.1,8.1,0,0,0,2.19,5.9,7.62,7.62,0,0,0,5.73,2.25,14,14,0,0,0,4.49-.83V22.15a11.49,11.49,0,0,1-4.35.93,5.94,5.94,0,0,1-4.54-1.8,6.78,6.78,0,0,1-1.69-4.86,7,7,0,0,1,1.69-4.88,5.66,5.66,0,0,1,4.4-1.88,10.58,10.58,0,0,1,4.19,1V8.77A13.94,13.94,0,0,0,109.85,8M86,21.18a6.62,6.62,0,0,1-1.84-4.78A6.67,6.67,0,0,1,86,11.58a6.08,6.08,0,0,1,4.58-1.92,6,6,0,0,1,4.54,1.94A6.69,6.69,0,0,1,97,16.4a6.64,6.64,0,0,1-1.83,4.78,6,6,0,0,1-4.54,1.91A6.1,6.1,0,0,1,86,21.18M84.7,10.39a8.22,8.22,0,0,0-2.36,6,8.17,8.17,0,0,0,2.36,6,8.38,8.38,0,0,0,11.73,0,8.21,8.21,0,0,0,2.34-6,8.27,8.27,0,0,0-2.34-6,8.35,8.35,0,0,0-11.73,0M65.24,8.3V24.46H67V13.13c1.38-2.31,3.15-3.46,5.28-3.46q4.39,0,4.39,5.59v9.21h1.72V14.6a6.87,6.87,0,0,0-1.63-4.86A5.69,5.69,0,0,0,72.36,8,6.11,6.11,0,0,0,67,11.11H67V8.3H65.24ZM48.51,21.18a6.62,6.62,0,0,1-1.84-4.78,6.67,6.67,0,0,1,1.84-4.81,6.07,6.07,0,0,1,4.57-1.92,6,6,0,0,1,4.54,1.94,6.71,6.71,0,0,1,1.83,4.8,6.63,6.63,0,0,1-1.83,4.78,6.41,6.41,0,0,1-9.12,0m-1.3-10.79a8.25,8.25,0,0,0-2.36,6,8.2,8.2,0,0,0,2.36,6,8.38,8.38,0,0,0,11.73,0,8.22,8.22,0,0,0,2.34-6,8.27,8.27,0,0,0-2.34-6,8.36,8.36,0,0,0-11.73,0M37.51,8a7.29,7.29,0,0,0-5.63,2.41,8.89,8.89,0,0,0-2.2,6.23,8.07,8.07,0,0,0,2.19,5.9,7.63,7.63,0,0,0,5.73,2.25,14,14,0,0,0,4.5-.83V22.15a11.51,11.51,0,0,1-4.35.93,5.92,5.92,0,0,1-4.54-1.8,6.78,6.78,0,0,1-1.7-4.86,7,7,0,0,1,1.7-4.88,5.64,5.64,0,0,1,4.39-1.88,10.57,10.57,0,0,1,4.2,1V8.77A14,14,0,0,0,37.51,8M16.17,10.91a5.1,5.1,0,0,1,3.43-1.24q4.19,0,5.11,4.73H14.25a6,6,0,0,1,1.92-3.48m8.51-.83A6.85,6.85,0,0,0,19.61,8a6.85,6.85,0,0,0-5.3,2.33,8.43,8.43,0,0,0-2.11,5.88,8.62,8.62,0,0,0,2.29,6.16,7.59,7.59,0,0,0,5.78,2.42,9.91,9.91,0,0,0,6.22-2.14V20.68a9.4,9.4,0,0,1-6,2.4,6.34,6.34,0,0,1-4.57-1.88A6.16,6.16,0,0,1,14,16.62,6.45,6.45,0,0,1,14,15.78H26.76a7.76,7.76,0,0,0-2.08-5.7M8.31,8Q5.55,8,2.65,12.55H2.58V8.3H0.86V24.46H2.58V14.31Q5.34,9.67,7.76,9.66,9,9.66,11,11.51L12,9.9Q9.89,8,8.31,8" transform="translate(0.63 0.08)" fill="#1d1d1b"/><path d="M483.29,32.6l0.53-.38,3.24,4.07a32.78,32.78,0,0,0-7.11,6A23.25,23.25,0,0,0,475.6,50a12.87,12.87,0,0,1,5.92-1.53A10,10,0,0,1,489,51.65a10.65,10.65,0,0,1,3,7.69,10.78,10.78,0,0,1-3.3,8,11,11,0,0,1-8,3.27,10.81,10.81,0,0,1-8.53-3.71,14.19,14.19,0,0,1-3.26-9.71,25.31,25.31,0,0,1,1.67-9,30.09,30.09,0,0,1,4.82-8.36A38.27,38.27,0,0,1,483.29,32.6Zm-8.84,23a16.82,16.82,0,0,0-.21,2.81,7.47,7.47,0,0,0,1.84,5.2,6,6,0,0,0,4.7,2A5.63,5.63,0,0,0,485,63.89a6.08,6.08,0,0,0,1.67-4.39,5.74,5.74,0,0,0-1.78-4.38,6.59,6.59,0,0,0-4.7-1.67,7.72,7.72,0,0,0-2.72.45A15.47,15.47,0,0,0,474.45,55.59Z" transform="translate(0.63 0.08)" fill="#1d1d1b"/><path d="M595.15,32.71h24.22L602.43,70.57l-4.79-2,13.69-30.73H595.15V32.71Z" transform="translate(0.63 0.08)" fill="#1d1d1b"/></svg>